<svg width="134" height="56" viewBox="0 0 134 56" fill="none" xmlns="http://www.w3.org/2000/svg">
<path d="M10.0578 53.8984V49.8789H11.3902C12.1373 49.8789 12.7282 50.2692 12.7282 51.0051C12.7282 51.635 12.3045 52.0197 11.6913 52.1256L12.8453 53.8984H12.1707L11.0836 52.1925H10.6153V53.8984H10.0578ZM11.3122 51.6796C11.8139 51.6796 12.1484 51.4957 12.1484 51.0274C12.1484 50.5758 11.8139 50.3974 11.3122 50.3974H10.6153V51.6796H11.3122ZM14.611 53.9765C13.719 53.9765 13.1225 53.3298 13.1225 52.4545C13.1225 51.5625 13.7302 50.9326 14.5887 50.9326C15.4528 50.9326 15.9768 51.5458 15.9768 52.4378C15.9768 52.5047 15.9713 52.5939 15.9601 52.6552H13.6856C13.758 53.1458 14.126 53.4747 14.6221 53.4747C14.9957 53.4747 15.2633 53.3521 15.4584 53.0901L15.8375 53.4357C15.5699 53.7758 15.135 53.9765 14.611 53.9765ZM13.6911 52.2037L15.4194 52.2092C15.3636 51.7019 15.0626 51.4176 14.5775 51.4176C14.0925 51.4176 13.7636 51.7131 13.6911 52.2037ZM16.6557 53.8984V51.0051H17.2021V53.8984H16.6557ZM16.9289 50.4699C16.7226 50.4699 16.5777 50.3193 16.5777 50.1298C16.5777 49.9403 16.7226 49.7897 16.9289 49.7897C17.124 49.7897 17.2745 49.9403 17.2745 50.1298C17.2745 50.3193 17.124 50.4699 16.9289 50.4699ZM18.0655 53.8984V51.0051H18.584V51.4288H18.623C18.7735 51.1723 19.0411 50.9326 19.5094 50.9326C20.1338 50.9326 20.5965 51.3674 20.5965 52.0476V53.8984H20.0446V52.1702C20.0446 51.7131 19.7826 51.4343 19.3756 51.4343C18.9073 51.4343 18.6119 51.7131 18.6119 52.1702V53.8984H18.0655ZM21.463 53.8984V51.0051H22.0093V53.8984H21.463ZM21.7362 50.4699C21.5299 50.4699 21.3849 50.3193 21.3849 50.1298C21.3849 49.9403 21.5299 49.7897 21.7362 49.7897C21.9313 49.7897 22.0818 49.9403 22.0818 50.1298C22.0818 50.3193 21.9313 50.4699 21.7362 50.4699ZM24.1439 55.2531C23.6087 55.2587 23.1181 55.1249 22.7167 54.5897L23.146 54.2608C23.4247 54.6065 23.7146 54.7402 24.1606 54.7402C24.7348 54.7402 25.1752 54.3444 25.1752 53.7423V53.3632H25.1362C24.9801 53.7033 24.6122 53.9542 24.1327 53.9542C23.2853 53.9542 22.6554 53.2963 22.6554 52.449C22.6554 51.596 23.2853 50.9326 24.1327 50.9326C24.6345 50.9326 24.9913 51.1835 25.1641 51.5235H25.1975V51.0051H25.7216V53.7423C25.7216 54.7068 25.047 55.2364 24.1439 55.2531ZM24.1996 53.4524C24.8184 53.4524 25.1697 53.0065 25.1697 52.449C25.1697 51.8915 24.8184 51.4399 24.1996 51.4399C23.592 51.4399 23.2073 51.8803 23.2073 52.4434C23.2073 53.0009 23.592 53.4524 24.1996 53.4524ZM27.6278 53.9765C27.0368 53.9765 26.5685 53.5361 26.5685 52.8559V51.0051H27.1204V52.7277C27.1204 53.1904 27.3825 53.4747 27.7616 53.4747C28.202 53.4747 28.503 53.1904 28.503 52.7277V51.0051H29.0494V53.8984H28.5253V53.4747H28.4919C28.3358 53.7423 28.0682 53.9765 27.6278 53.9765ZM29.9394 53.8984V51.0051H30.4579V51.4288H30.4969C30.6474 51.1723 30.915 50.9326 31.3833 50.9326C32.0077 50.9326 32.4704 51.3674 32.4704 52.0476V53.8984H31.9185V52.1702C31.9185 51.7131 31.6565 51.4343 31.2495 51.4343C30.7812 51.4343 30.4858 51.7131 30.4858 52.1702V53.8984H29.9394ZM34.5968 55.2531C34.0616 55.2587 33.571 55.1249 33.1697 54.5897L33.5989 54.2608C33.8777 54.6065 34.1676 54.7402 34.6136 54.7402C35.1878 54.7402 35.6282 54.3444 35.6282 53.7423V53.3632H35.5892C35.4331 53.7033 35.0651 53.9542 34.5857 53.9542C33.7383 53.9542 33.1083 53.2963 33.1083 52.449C33.1083 51.596 33.7383 50.9326 34.5857 50.9326C35.0874 50.9326 35.4442 51.1835 35.617 51.5235H35.6505V51.0051H36.1745V53.7423C36.1745 54.7068 35.5 55.2364 34.5968 55.2531ZM34.6526 53.4524C35.2714 53.4524 35.6226 53.0065 35.6226 52.449C35.6226 51.8915 35.2714 51.4399 34.6526 51.4399C34.0449 51.4399 33.6602 51.8803 33.6602 52.4434C33.6602 53.0009 34.0449 53.4524 34.6526 53.4524ZM38.0138 53.9765C37.5065 53.9765 37.1943 53.8148 36.8542 53.4803L37.2166 53.1068C37.4619 53.3632 37.6737 53.497 37.9859 53.497C38.3037 53.497 38.549 53.3632 38.549 53.1068C38.549 52.8894 38.365 52.7723 37.9079 52.6664C37.2946 52.527 36.988 52.265 36.988 51.7911C36.988 51.3117 37.4284 50.9326 38.0361 50.9326C38.5434 50.9326 38.8333 51.0943 39.0953 51.4511L38.6828 51.7577C38.5156 51.5012 38.3149 51.3897 38.0584 51.3897C37.7685 51.3897 37.5399 51.5514 37.5399 51.7577C37.5399 51.9695 37.6682 52.081 38.1086 52.1814C38.8054 52.3375 39.1009 52.5883 39.1009 53.0622C39.1009 53.6308 38.6048 53.9765 38.0138 53.9765ZM41.0243 53.9765C40.1769 53.9765 39.5804 53.3298 39.5804 52.4601C39.5804 51.5793 40.1769 50.9326 41.0243 50.9326C41.4814 50.9326 41.8438 51.189 41.9943 51.518H42.0333V49.8789H42.5797V53.8984H42.0612V53.3744H42.0222C41.8549 53.7256 41.5093 53.9765 41.0243 53.9765ZM41.0912 53.4692C41.6654 53.4692 42.0333 53.0232 42.0333 52.4601C42.0333 51.8692 41.6654 51.4399 41.0912 51.4399C40.4891 51.4399 40.1323 51.858 40.1323 52.4545C40.1323 53.0343 40.4891 53.4692 41.0912 53.4692ZM43.5449 53.8984V51.0051H44.0912V53.8984H43.5449ZM43.818 50.4699C43.6118 50.4699 43.4668 50.3193 43.4668 50.1298C43.4668 49.9403 43.6118 49.7897 43.818 49.7897C44.0132 49.7897 44.1637 49.9403 44.1637 50.1298C44.1637 50.3193 44.0132 50.4699 43.818 50.4699ZM46.2257 53.9765C45.3338 53.9765 44.7372 53.3298 44.7372 52.4545C44.7372 51.5625 45.3449 50.9326 46.2034 50.9326C47.0676 50.9326 47.5916 51.5458 47.5916 52.4378C47.5916 52.5047 47.586 52.5939 47.5749 52.6552H45.3003C45.3728 53.1458 45.7407 53.4747 46.2369 53.4747C46.6104 53.4747 46.878 53.3521 47.0731 53.0901L47.4522 53.4357C47.1846 53.7758 46.7498 53.9765 46.2257 53.9765ZM45.3059 52.2037L47.0341 52.2092C46.9784 51.7019 46.6773 51.4176 46.1923 51.4176C45.7073 51.4176 45.3784 51.7131 45.3059 52.2037ZM48.2593 53.8984V51.0051H48.7778V51.4288H48.8168C48.9673 51.1723 49.2349 50.9326 49.7032 50.9326C50.3276 50.9326 50.7903 51.3674 50.7903 52.0476V53.8984H50.2384V52.1702C50.2384 51.7131 49.9764 51.4343 49.5694 51.4343C49.1011 51.4343 48.8057 51.7131 48.8057 52.1702V53.8984H48.2593ZM52.599 53.9765C52.0916 53.9765 51.7794 53.8148 51.4394 53.4803L51.8017 53.1068C52.047 53.3632 52.2589 53.497 52.5711 53.497C52.8889 53.497 53.1341 53.3632 53.1341 53.1068C53.1341 52.8894 52.9502 52.7723 52.493 52.6664C51.8798 52.527 51.5732 52.265 51.5732 51.7911C51.5732 51.3117 52.0136 50.9326 52.6213 50.9326C53.1286 50.9326 53.4185 51.0943 53.6805 51.4511L53.2679 51.7577C53.1007 51.5012 52.9 51.3897 52.6436 51.3897C52.3537 51.3897 52.1251 51.5514 52.1251 51.7577C52.1251 51.9695 52.2533 52.081 52.6937 52.1814C53.3906 52.3375 53.6861 52.5883 53.6861 53.0622C53.6861 53.6308 53.1899 53.9765 52.599 53.9765ZM55.6608 53.9542C55.0754 53.943 54.7242 53.6253 54.7242 53.0399V51.5012H54.0831V51.0051H54.7242V50.3249L55.2705 50.2246V51.0051H56.1625V51.5012H55.2705V52.9953C55.2705 53.3242 55.4489 53.4692 55.7667 53.4692C55.9005 53.4692 56.0399 53.458 56.1848 53.419V53.8984C55.973 53.9375 55.8503 53.9598 55.6608 53.9542ZM57.9254 53.9765C57.0334 53.9765 56.4369 53.3298 56.4369 52.4545C56.4369 51.5625 57.0446 50.9326 57.9031 50.9326C58.7672 50.9326 59.2913 51.5458 59.2913 52.4378C59.2913 52.5047 59.2857 52.5939 59.2746 52.6552H57C57.0725 53.1458 57.4404 53.4747 57.9366 53.4747C58.3101 53.4747 58.5777 53.3521 58.7728 53.0901L59.1519 53.4357C58.8843 53.7758 58.4495 53.9765 57.9254 53.9765ZM57.0056 52.2037L58.7338 52.2092C58.678 51.7019 58.377 51.4176 57.892 51.4176C57.407 51.4176 57.078 51.7131 57.0056 52.2037ZM63.0131 53.9709C61.8256 53.9709 60.9559 53.0734 60.9559 51.897C60.9559 50.7207 61.8256 49.8065 63.0131 49.8065C63.6207 49.8065 64.1225 50.0016 64.4904 50.4364L64.0834 50.7988C63.7991 50.4587 63.4479 50.3305 63.0242 50.3305C62.1044 50.3305 61.5413 51.0051 61.5413 51.897C61.5413 52.7723 62.1545 53.4469 63.0186 53.4469C63.4312 53.4469 63.7378 53.3354 64.0221 53.1068V52.2371H62.8068V51.7354H64.5629V53.3354C64.1838 53.7312 63.6653 53.9709 63.0131 53.9709ZM65.3978 53.8984V51.0051H65.9163V51.3953H65.9553C66.1114 51.1054 66.4459 50.9326 66.8083 50.9326C67.2208 50.9326 67.5497 51.1277 67.6947 51.4343H67.7281C67.8675 51.1333 68.2466 50.9326 68.6926 50.9326C69.3281 50.9326 69.802 51.3897 69.802 51.9974V53.8984H69.2557V52.1256C69.2557 51.7019 68.9881 51.4343 68.5699 51.4343C68.1518 51.4343 67.8842 51.6908 67.8842 52.0922V53.8984H67.3379V52.1256C67.3379 51.7019 67.1093 51.4343 66.641 51.4343C66.2118 51.4343 65.9442 51.7019 65.9442 52.1256V53.8984H65.3978ZM72.2068 53.9765C71.7218 53.9765 71.365 53.72 71.2145 53.3744H71.1754V53.8984H70.657V49.8789H71.2033V51.518H71.2368C71.3873 51.1779 71.7552 50.9382 72.2068 50.9382C73.0598 50.9382 73.6563 51.5848 73.6563 52.4601C73.6563 53.3298 73.0598 53.9765 72.2068 53.9765ZM72.1455 53.4692C72.742 53.4692 73.1044 53.0343 73.1044 52.4545C73.1044 51.8636 72.742 51.4399 72.1455 51.4399C71.5713 51.4399 71.1977 51.8692 71.1977 52.4601C71.1977 53.0232 71.5713 53.4692 72.1455 53.4692ZM74.3598 53.8984V49.8789H74.9173V51.5514H77.0302V49.8789H77.5821V53.8984H77.0302V52.0699H74.9173V53.8984H74.3598ZM79.5935 52.5493V52.0141H81.266V52.5493H79.5935ZM83.2666 53.8984V49.8789H84.0248L85.0394 52.0197C85.2847 52.5437 85.4297 52.8615 85.4743 53.0622H85.4966C85.5412 52.8727 85.675 52.5493 85.9259 52.0197L86.9516 49.8789H87.6708V53.8984H87.1189V51.8747C87.1189 51.2336 87.1356 50.849 87.1691 50.6315H87.1468L85.6081 53.8984H85.3349L83.7907 50.6315H83.7684C83.8074 50.8824 83.8241 51.2448 83.8241 51.8747V53.8984H83.2666ZM89.8723 53.9765C88.9803 53.9765 88.3838 53.3298 88.3838 52.4545C88.3838 51.5625 88.9914 50.9326 89.85 50.9326C90.7141 50.9326 91.2381 51.5458 91.2381 52.4378C91.2381 52.5047 91.2326 52.5939 91.2214 52.6552H88.9468C89.0193 53.1458 89.3873 53.4747 89.8834 53.4747C90.257 53.4747 90.5245 53.3521 90.7197 53.0901L91.0988 53.4357C90.8312 53.7758 90.3963 53.9765 89.8723 53.9765ZM88.9524 52.2037L90.6806 52.2092C90.6249 51.7019 90.3239 51.4176 89.8388 51.4176C89.3538 51.4176 89.0249 51.7131 88.9524 52.2037ZM91.917 53.8984V51.0051H92.4634V53.8984H91.917ZM92.1902 50.4699C91.9839 50.4699 91.839 50.3193 91.839 50.1298C91.839 49.9403 91.9839 49.7897 92.1902 49.7897C92.3853 49.7897 92.5358 49.9403 92.5358 50.1298C92.5358 50.3193 92.3853 50.4699 92.1902 50.4699ZM94.2801 53.9765C93.7728 53.9765 93.4606 53.8148 93.1205 53.4803L93.4829 53.1068C93.7282 53.3632 93.9401 53.497 94.2522 53.497C94.57 53.497 94.8153 53.3632 94.8153 53.1068C94.8153 52.8894 94.6313 52.7723 94.1742 52.6664C93.561 52.527 93.2543 52.265 93.2543 51.7911C93.2543 51.3117 93.6948 50.9326 94.3024 50.9326C94.8097 50.9326 95.0996 51.0943 95.3617 51.4511L94.9491 51.7577C94.7819 51.5012 94.5812 51.3897 94.3247 51.3897C94.0348 51.3897 93.8063 51.5514 93.8063 51.7577C93.8063 51.9695 93.9345 52.081 94.3749 52.1814C95.0718 52.3375 95.3672 52.5883 95.3672 53.0622C95.3672 53.6308 94.8711 53.9765 94.2801 53.9765ZM97.3419 53.9542C96.7566 53.943 96.4053 53.6253 96.4053 53.0399V51.5012H95.7642V51.0051H96.4053V50.3249L96.9517 50.2246V51.0051H97.8437V51.5012H96.9517V52.9953C96.9517 53.3242 97.1301 53.4692 97.4478 53.4692C97.5816 53.4692 97.721 53.458 97.866 53.419V53.8984C97.6541 53.9375 97.5315 53.9598 97.3419 53.9542ZM99.6066 53.9765C98.7146 53.9765 98.1181 53.3298 98.1181 52.4545C98.1181 51.5625 98.7258 50.9326 99.5843 50.9326C100.448 50.9326 100.972 51.5458 100.972 52.4378C100.972 52.5047 100.967 52.5939 100.956 52.6552H98.6812C98.7536 53.1458 99.1216 53.4747 99.6178 53.4747C99.9913 53.4747 100.259 53.3521 100.454 53.0901L100.833 53.4357C100.565 53.7758 100.131 53.9765 99.6066 53.9765ZM98.6867 52.2037L100.415 52.2092C100.359 51.7019 100.058 51.4176 99.5732 51.4176C99.0881 51.4176 98.7592 51.7131 98.6867 52.2037ZM101.64 53.8984V51.0051H102.159V51.4566H102.198C102.315 51.1612 102.605 50.966 103.129 50.966C103.173 50.966 103.212 50.966 103.268 50.9716L103.257 51.5068H103.101C102.549 51.5068 102.187 51.7577 102.187 52.2706V53.8984H101.64ZM105.319 53.9765C104.834 53.9765 104.477 53.72 104.326 53.3744H104.287V53.8984H103.769V49.8789H104.315V51.518H104.349C104.499 51.1779 104.867 50.9382 105.319 50.9382C106.172 50.9382 106.768 51.5848 106.768 52.4601C106.768 53.3298 106.172 53.9765 105.319 53.9765ZM105.257 53.4692C105.854 53.4692 106.216 53.0343 106.216 52.4545C106.216 51.8636 105.854 51.4399 105.257 51.4399C104.683 51.4399 104.31 51.8692 104.31 52.4601C104.31 53.0232 104.683 53.4692 105.257 53.4692ZM108.682 53.9765C107.79 53.9765 107.194 53.3298 107.194 52.4545C107.194 51.5625 107.801 50.9326 108.66 50.9326C109.524 50.9326 110.048 51.5458 110.048 52.4378C110.048 52.5047 110.042 52.5939 110.031 52.6552H107.757C107.829 53.1458 108.197 53.4747 108.693 53.4747C109.067 53.4747 109.334 53.3521 109.53 53.0901L109.909 53.4357C109.641 53.7758 109.206 53.9765 108.682 53.9765ZM107.762 52.2037L109.491 52.2092C109.435 51.7019 109.134 51.4176 108.649 51.4176C108.164 51.4176 107.835 51.7131 107.762 52.2037ZM111.873 53.9542C111.287 53.943 110.936 53.6253 110.936 53.0399V51.5012H110.295V51.0051H110.936V50.3249L111.482 50.2246V51.0051H112.374V51.5012H111.482V52.9953C111.482 53.3242 111.661 53.4692 111.979 53.4692C112.112 53.4692 112.252 53.458 112.397 53.419V53.8984C112.185 53.9375 112.062 53.9598 111.873 53.9542ZM112.948 53.8984V51.0051H113.466V51.4566H113.505C113.622 51.1612 113.912 50.966 114.436 50.966C114.481 50.966 114.52 50.966 114.576 50.9716L114.565 51.5068H114.409C113.857 51.5068 113.494 51.7577 113.494 52.2706V53.8984H112.948ZM115.088 53.8984V51.0051H115.634V53.8984H115.088ZM115.361 50.4699C115.155 50.4699 115.01 50.3193 115.01 50.1298C115.01 49.9403 115.155 49.7897 115.361 49.7897C115.556 49.7897 115.707 49.9403 115.707 50.1298C115.707 50.3193 115.556 50.4699 115.361 50.4699ZM117.769 53.9765C116.877 53.9765 116.28 53.3298 116.28 52.4545C116.28 51.5625 116.888 50.9326 117.746 50.9326C118.61 50.9326 119.134 51.5458 119.134 52.4378C119.134 52.5047 119.129 52.5939 119.118 52.6552H116.843C116.916 53.1458 117.284 53.4747 117.78 53.4747C118.153 53.4747 118.421 53.3521 118.616 53.0901L118.995 53.4357C118.728 53.7758 118.293 53.9765 117.769 53.9765ZM116.849 52.2037L118.577 52.2092C118.521 51.7019 118.22 51.4176 117.735 51.4176C117.25 51.4176 116.921 51.7131 116.849 52.2037ZM121.352 53.9765C120.867 53.9765 120.51 53.72 120.36 53.3744H120.321V53.8984H119.802V49.8789H120.349V51.518H120.382C120.533 51.1779 120.9 50.9382 121.352 50.9382C122.205 50.9382 122.802 51.5848 122.802 52.4601C122.802 53.3298 122.205 53.9765 121.352 53.9765ZM121.291 53.4692C121.887 53.4692 122.25 53.0343 122.25 52.4545C122.25 51.8636 121.887 51.4399 121.291 51.4399C120.716 51.4399 120.343 51.8692 120.343 52.4601C120.343 53.0232 120.716 53.4692 121.291 53.4692Z" fill="#012E55"/>
<path d="M129.055 17.3883L126.229 14.4798L123.324 17.3947V23.4429L97.0672 19.3744V13.537L92.6549 7.90106V4.03956L92.3017 3.43952L91.9486 4.03973V7.9077L87.4138 13.5436V19.4992H81.5021V14.9408L81.0627 14.1821L80.6732 14.9221V19.4364L60.283 20.9614V13.1536L55.6398 9.89233L51.5039 13.624V22.361L34.8995 23.9349L34.6754 21.6958C34.6384 21.3253 34.3699 21.0193 34.0072 20.934L33.1985 20.744L31.4769 12.678L29.9985 20.8477L29.0309 21.2397C28.7271 21.3628 28.518 21.6456 28.4896 21.9719L28.2723 24.4695L8.38767 25.8306L5.48131 24.1531L1.7448 30.6231V54.9461H0V30.1563L4.84251 21.7713L8.79933 24.0552L26.6633 22.8323L26.7512 21.821C26.8364 20.8421 27.4639 19.9935 28.3754 19.6243L28.4524 19.593L31.3359 3.65996L34.6778 19.3171C35.6267 19.651 36.3098 20.5056 36.4115 21.5223L36.4628 22.0357L49.7591 20.7752V12.8494L55.5042 7.66616L62.0278 12.2486V19.0828L78.9284 17.8188V14.4917L80.9899 10.5759L83.2469 14.473V17.7561H85.669V12.93L90.2038 7.29371V3.56549L92.3019 0L94.3997 3.56549V7.30035L98.812 12.9364V17.8807L121.579 21.4086V16.675L126.244 11.9936L130.8 16.6813V32.9131L133.129 33.1582V54.9461H131.384V34.7273L129.055 34.4822V17.3883Z" fill="#012E55"/>
<path d="M113.388 47.0886V36.6491H116.059V38.1749C116.607 36.9971 117.671 36.4082 119.251 36.4082C120 36.4082 120.676 36.5822 121.278 36.9302C121.881 37.2782 122.356 37.7734 122.704 38.4158C123.052 39.0582 123.226 39.8211 123.226 40.7045V47.0886H120.515V41.367C120.515 40.4568 120.308 39.801 119.893 39.3995C119.478 38.9846 118.936 38.7772 118.267 38.7772C117.691 38.7772 117.183 38.9846 116.741 39.3995C116.313 39.801 116.099 40.4568 116.099 41.367V47.0886H113.388Z" fill="#012E55"/>
<path d="M106.898 47.3462C105.827 47.3462 104.884 47.0986 104.067 46.6034C103.251 46.1082 102.615 45.4524 102.16 44.636C101.718 43.8062 101.498 42.8894 101.498 41.8856C101.498 40.8818 101.732 39.965 102.2 39.1352C102.669 38.292 103.304 37.6228 104.107 37.1276C104.924 36.6324 105.854 36.3848 106.898 36.3848C107.942 36.3848 108.859 36.6324 109.648 37.1276C110.451 37.6228 111.074 38.292 111.515 39.1352C111.97 39.965 112.198 40.8818 112.198 41.8856C112.198 42.0328 112.191 42.1867 112.178 42.3473C112.165 42.5079 112.144 42.6752 112.118 42.8492H104.308C104.455 43.4649 104.75 43.9668 105.192 44.3549C105.647 44.743 106.215 44.9371 106.898 44.9371C107.487 44.9371 107.995 44.8033 108.424 44.5356C108.865 44.2679 109.207 43.9333 109.448 43.5318L111.556 45.1178C111.141 45.7736 110.518 46.309 109.689 46.7239C108.859 47.1388 107.929 47.3462 106.898 47.3462ZM106.858 38.7136C106.215 38.7136 105.667 38.9076 105.212 39.2958C104.757 39.6839 104.455 40.1925 104.308 40.8215H109.468C109.32 40.246 109.013 39.7508 108.544 39.3359C108.089 38.921 107.527 38.7136 106.858 38.7136Z" fill="#012E55"/>
<path d="M92.0184 47.0862V32.4316H94.7285V40.863L98.6431 36.6473H102.497L97.5792 41.5054L102.518 47.0862H98.9242L94.7285 42.1278V47.0862H92.0184Z" fill="#FF0044"/>
<path d="M80.6672 47.0886V36.6491H83.3373V38.1749C83.8861 36.9971 84.9501 36.4082 86.5294 36.4082C87.2789 36.4082 87.9548 36.5822 88.5571 36.9302C89.1594 37.2782 89.6345 37.7734 89.9825 38.4158C90.3305 39.0582 90.5044 39.8211 90.5044 40.7045V47.0886H87.7942V41.367C87.7942 40.4568 87.5867 39.801 87.1718 39.3995C86.7569 38.9846 86.2149 38.7772 85.5457 38.7772C84.9702 38.7772 84.4616 38.9846 84.0199 39.3995C83.5916 39.801 83.3775 40.4568 83.3775 41.367V47.0886H80.6672Z" fill="#012E55"/>
<path d="M73.0543 47.3471C72.104 47.3471 71.2341 47.1062 70.4444 46.6244C69.6681 46.1291 69.0458 45.4733 68.5774 44.6569C68.1223 43.8271 67.8948 42.9103 67.8948 41.9065C67.8948 41.157 68.0286 40.4544 68.2963 39.7985C68.564 39.1293 68.932 38.5471 69.4005 38.0519C69.8689 37.5433 70.411 37.1485 71.0266 36.8675C71.6557 36.573 72.3316 36.4258 73.0543 36.4258C73.9644 36.4258 74.6737 36.5998 75.1823 36.9478C75.6909 37.2824 76.0858 37.7307 76.3668 38.2928V36.6466H79.057V47.0861H76.427V45.3796C76.146 45.9685 75.7445 46.4437 75.2225 46.805C74.7139 47.1664 73.9912 47.3471 73.0543 47.3471ZM73.496 44.8978C74.0982 44.8978 74.6135 44.764 75.0418 44.4963C75.4835 44.2152 75.8248 43.8472 76.0657 43.3921C76.3066 42.9371 76.427 42.4419 76.427 41.9065C76.427 41.3578 76.3066 40.8559 76.0657 40.4008C75.8248 39.9458 75.4835 39.5777 75.0418 39.2966C74.6135 39.0156 74.0982 38.875 73.496 38.875C72.9205 38.875 72.4119 39.0156 71.9702 39.2966C71.5419 39.5643 71.2073 39.9257 70.9664 40.3807C70.7255 40.8358 70.605 41.3377 70.605 41.8864C70.605 42.4084 70.7255 42.9036 70.9664 43.3721C71.2073 43.8271 71.5419 44.1952 71.9702 44.4762C72.4119 44.7573 72.9205 44.8978 73.496 44.8978Z" fill="#012E55"/>
<path d="M62.0424 47.0863V36.6468H64.6723V38.6344C64.8463 37.8849 65.201 37.316 65.7363 36.9279C66.2717 36.5264 66.9944 36.3524 67.9045 36.4059V38.9556H67.5231C66.7468 38.9556 66.091 39.2032 65.5557 39.6984C65.0203 40.1936 64.7526 40.8762 64.7526 41.7461V47.0863H62.0424Z" fill="#012E55"/>
<path d="M56.2969 47.0862V38.9559H54.8314V36.6473H56.2969V35.9447C56.2969 34.8875 56.6114 34.0376 57.2404 33.3952C57.8694 32.7528 58.7125 32.4316 59.7698 32.4316H60.894V34.7402H60.1914C59.4018 34.7402 59.007 35.1551 59.007 35.9849V36.6473H61.1349V38.9559H59.007V47.0862H56.2969Z" fill="#FF0044"/>
<path d="M44.3793 47.0886V36.6491H47.0494V38.1749C47.5981 36.9971 48.6621 36.4082 50.2414 36.4082C50.9909 36.4082 51.6668 36.5822 52.2691 36.9302C52.8714 37.2782 53.3465 37.7734 53.6945 38.4158C54.0425 39.0582 54.2165 39.8211 54.2165 40.7045V47.0886H51.5062V41.367C51.5062 40.4568 51.2988 39.801 50.8839 39.3995C50.469 38.9846 49.9269 38.7772 49.2577 38.7772C48.6822 38.7772 48.1736 38.9846 47.732 39.3995C47.3037 39.801 47.0895 40.4568 47.0895 41.367V47.0886H44.3793Z" fill="#012E55"/>
<path d="M41.4107 35.7856C40.9557 35.7856 40.5676 35.6317 40.2464 35.3239C39.9386 35.0027 39.7847 34.6213 39.7847 34.1797C39.7847 33.7514 39.9386 33.3834 40.2464 33.0755C40.5676 32.7543 40.9557 32.5938 41.4107 32.5938C41.8791 32.5938 42.2672 32.7543 42.5751 33.0755C42.8829 33.3834 43.0368 33.7514 43.0368 34.1797C43.0368 34.6347 42.8829 35.0161 42.5751 35.3239C42.2672 35.6317 41.8791 35.7856 41.4107 35.7856ZM40.0657 47.0877V36.6489H42.7758V47.0877H40.0657Z" fill="#012E55"/>
<path d="M32.4532 47.3471C31.503 47.3471 30.633 47.1062 29.8433 46.6244C29.0671 46.1291 28.4447 45.4733 27.9763 44.6569C27.5212 43.8271 27.2937 42.9103 27.2937 41.9065C27.2937 41.157 27.4275 40.4544 27.6952 39.7985C27.9629 39.1293 28.331 38.5471 28.7994 38.0519C29.2678 37.5433 29.8099 37.1485 30.4255 36.8675C31.0546 36.573 31.7305 36.4258 32.4532 36.4258C33.3633 36.4258 34.0727 36.5998 34.5813 36.9478C35.0899 37.2824 35.4847 37.7307 35.7657 38.2928V36.6466H38.4559V47.0861H35.826V45.3796C35.5449 45.9685 35.1434 46.4437 34.6214 46.805C34.1128 47.1664 33.3901 47.3471 32.4532 47.3471ZM32.8949 44.8978C33.4972 44.8978 34.0124 44.764 34.4407 44.4963C34.8824 44.2152 35.2237 43.8472 35.4646 43.3921C35.7055 42.9371 35.826 42.4419 35.826 41.9065C35.826 41.3578 35.7055 40.8559 35.4646 40.4008C35.2237 39.9458 34.8824 39.5777 34.4407 39.2966C34.0124 39.0156 33.4972 38.875 32.8949 38.875C32.3194 38.875 31.8108 39.0156 31.3691 39.2966C30.9408 39.5643 30.6062 39.9257 30.3653 40.3807C30.1244 40.8358 30.004 41.3377 30.004 41.8864C30.004 42.4084 30.1244 42.9036 30.3653 43.3721C30.6062 43.8271 30.9408 44.1952 31.3691 44.4762C31.8108 44.7573 32.3194 44.8978 32.8949 44.8978Z" fill="#012E55"/>
<path d="M10.077 47.0875V33.0352H13.57L16.4809 39.2383C16.8155 39.961 17.0831 40.5565 17.2839 41.0249C17.498 41.4933 17.6586 41.8814 17.7657 42.1893C17.8861 42.4971 17.9798 42.7647 18.0467 42.9922C18.1136 42.7647 18.2006 42.4971 18.3077 42.1893C18.4148 41.8814 18.5687 41.4933 18.7694 41.0249C18.9835 40.5565 19.2579 39.961 19.5925 39.2383L22.5234 33.0352H25.896V47.0875H23.1457V41.4063C23.1457 40.7639 23.1524 40.2152 23.1658 39.7602C23.1792 39.3052 23.1992 38.8903 23.226 38.5156C23.2528 38.1275 23.2929 37.7327 23.3465 37.3312L18.669 47.0875H17.3039L12.6265 37.3312C12.6801 37.7327 12.7202 38.1275 12.747 38.5156C12.7737 38.8903 12.7938 39.3052 12.8072 39.7602C12.8206 40.2152 12.8273 40.7639 12.8273 41.4063V47.0875H10.077Z" fill="#FF0044"/>
</svg>
